<mxfile host="65bd71144e">
    <diagram id="6teU1kiIubuhWS2mymgc" name="PÃ¡gina-1">
        <mxGraphModel dx="1166" dy="689" grid="0" gridSize="10" guides="1" tooltips="1" connect="1" arrows="1" fold="1" page="1" pageScale="1" pageWidth="827" pageHeight="1169" background="#330000" math="0" shadow="0">
            <root>
                <mxCell id="0"/>
                <mxCell id="1" parent="0"/>
                <mxCell id="2" value="&lt;h1&gt;COURSES&lt;/h1&gt;" style="whiteSpace=wrap;html=1;aspect=fixed;fillColor=#6a00ff;fontColor=#CC6600;strokeColor=#3700CC;align=right;" parent="1" vertex="1">
                    <mxGeometry x="185" y="344" width="260" height="260" as="geometry"/>
                </mxCell>
                <mxCell id="4" value="APP.MODULE" style="shape=note;whiteSpace=wrap;html=1;backgroundOutline=1;darkOpacity=0.05;fontColor=#ffffff;fillColor=#a20025;strokeColor=#6F0000;verticalAlign=bottom;" parent="1" vertex="1">
                    <mxGeometry x="200.5" y="440" width="100" height="90" as="geometry"/>
                </mxCell>
                <mxCell id="11" style="edgeStyle=none;html=1;fontSize=26;fontColor=#FFFFFF;strokeWidth=6;" parent="1" source="5" target="19" edge="1">
                    <mxGeometry relative="1" as="geometry">
                        <mxPoint x="557" y="135" as="targetPoint"/>
                    </mxGeometry>
                </mxCell>
                <mxCell id="5" value="USER" style="shape=umlActor;verticalLabelPosition=bottom;verticalAlign=top;html=1;outlineConnect=0;fontColor=#FFFFFF;fontSize=33;" parent="1" vertex="1">
                    <mxGeometry x="636" y="84" width="130" height="230" as="geometry"/>
                </mxCell>
                <mxCell id="16" style="edgeStyle=none;html=1;exitX=0.5;exitY=1;exitDx=0;exitDy=0;entryX=0.5;entryY=0;entryDx=0;entryDy=0;fontSize=26;fontColor=#FFFFFF;rounded=0;strokeColor=default;jumpStyle=gap;strokeWidth=5;startArrow=none;" parent="1" source="9" target="2" edge="1">
                    <mxGeometry relative="1" as="geometry">
                        <Array as="points">
                            <mxPoint x="315" y="288"/>
                        </Array>
                    </mxGeometry>
                </mxCell>
                <mxCell id="9" value="&lt;blockquote style=&quot;margin: 0 0 0 40px; border: none; padding: 0px;&quot;&gt;&lt;h3 style=&quot;margin: 0 0 0 40px; border: none; padding: 0px;&quot;&gt;&lt;font style=&quot;font-size: 31px;&quot;&gt;CONTROLLERS&lt;/font&gt;&lt;/h3&gt;&lt;/blockquote&gt;" style="triangle;whiteSpace=wrap;html=1;fontSize=33;fontColor=#ffffff;fillColor=#1ba1e2;strokeColor=#FFFFFF;fontStyle=1;horizontal=1;gradientColor=#000099;strokeWidth=5;align=center;verticalAlign=top;" parent="1" vertex="1">
                    <mxGeometry x="66" y="9" width="369" height="313" as="geometry"/>
                </mxCell>
                <mxCell id="17" value="&lt;div style=&quot;&quot;&gt;&lt;b style=&quot;background-color: initial;&quot;&gt;&lt;font style=&quot;font-size: 21px;&quot;&gt;SERVICES&lt;/font&gt;&lt;/b&gt;&lt;/div&gt;" style="shape=cube;whiteSpace=wrap;html=1;boundedLbl=1;backgroundOutline=1;darkOpacity=0.05;darkOpacity2=0.1;fontSize=26;fontColor=#000000;fillColor=#e3c800;strokeColor=#B09500;align=center;" parent="1" vertex="1">
                    <mxGeometry x="114" y="107" width="143" height="117" as="geometry"/>
                </mxCell>
                <mxCell id="20" style="edgeStyle=none;rounded=0;jumpStyle=gap;html=1;entryX=1;entryY=0.5;entryDx=0;entryDy=0;strokeColor=default;strokeWidth=6;fontSize=22;fontColor=#FFFFFF;" parent="1" source="19" target="9" edge="1">
                    <mxGeometry relative="1" as="geometry"/>
                </mxCell>
                <mxCell id="19" value="INSOMNIA" style="shape=cylinder3;whiteSpace=wrap;html=1;boundedLbl=1;backgroundOutline=1;size=15;strokeColor=#FFFFFF;strokeWidth=5;fontSize=18;fontColor=#000000;gradientColor=#FFFFFF;fillColor=#330066;horizontal=0;fontStyle=1" parent="1" vertex="1">
                    <mxGeometry x="483" y="69" width="72" height="134" as="geometry"/>
                </mxCell>
            </root>
        </mxGraphModel>
    </diagram>
</mxfile>